<?xml version="1.0" encoding="UTF-8" standalone="no"?>
<svg
   id="Layer_1"
   height="512"
   viewBox="0 0 24 24"
   width="512"
   data-name="Layer 1"
   version="1.1"
   sodipodi:docname="browser.svg"
   inkscape:version="1.3 (0e150ed, 2023-07-21)"
   xmlns:inkscape="http://www.inkscape.org/namespaces/inkscape"
   xmlns:sodipodi="http://sodipodi.sourceforge.net/DTD/sodipodi-0.dtd"
   xmlns="http://www.w3.org/2000/svg"
   xmlns:svg="http://www.w3.org/2000/svg">
  <defs
     id="defs1" />
  <sodipodi:namedview
     id="namedview1"
     pagecolor="#505050"
     bordercolor="#eeeeee"
     borderopacity="1"
     inkscape:showpageshadow="0"
     inkscape:pageopacity="0"
     inkscape:pagecheckerboard="0"
     inkscape:deskcolor="#505050"
     inkscape:zoom="0.4609375"
     inkscape:cx="254.91525"
     inkscape:cy="256"
     inkscape:window-width="1312"
     inkscape:window-height="449"
     inkscape:window-x="0"
     inkscape:window-y="37"
     inkscape:window-maximized="0"
     inkscape:current-layer="Layer_1" />
  <path
     d="m19 1h-14a5.006 5.006 0 0 0 -5 5v12a5.006 5.006 0 0 0 5 5h14a5.006 5.006 0 0 0 5-5v-12a5.006 5.006 0 0 0 -5-5zm-14 2h14a3 3 0 0 1 3 3v1h-20v-1a3 3 0 0 1 3-3zm14 18h-14a3 3 0 0 1 -3-3v-9h20v9a3 3 0 0 1 -3 3zm0-8a1 1 0 0 1 -1 1h-12a1 1 0 0 1 0-2h12a1 1 0 0 1 1 1zm-4 4a1 1 0 0 1 -1 1h-8a1 1 0 0 1 0-2h8a1 1 0 0 1 1 1zm-12-12a1 1 0 1 1 1 1 1 1 0 0 1 -1-1zm3 0a1 1 0 1 1 1 1 1 1 0 0 1 -1-1zm3 0a1 1 0 1 1 1 1 1 1 0 0 1 -1-1z"
     id="path1"
     style="fill:#ffffff;fill-opacity:1" />
</svg>
