<?xml version="1.0" encoding="UTF-8" standalone="no"?>
<svg
   id="Bold"
   viewBox="0 0 24 24"
   width="512"
   height="512"
   version="1.1"
   sodipodi:docname="stats.svg"
   inkscape:version="1.3 (0e150ed, 2023-07-21)"
   xmlns:inkscape="http://www.inkscape.org/namespaces/inkscape"
   xmlns:sodipodi="http://sodipodi.sourceforge.net/DTD/sodipodi-0.dtd"
   xmlns="http://www.w3.org/2000/svg"
   xmlns:svg="http://www.w3.org/2000/svg">
  <defs
     id="defs4" />
  <sodipodi:namedview
     id="namedview4"
     pagecolor="#505050"
     bordercolor="#eeeeee"
     borderopacity="1"
     inkscape:showpageshadow="0"
     inkscape:pageopacity="0"
     inkscape:pagecheckerboard="0"
     inkscape:deskcolor="#505050"
     inkscape:zoom="0.4609375"
     inkscape:cx="254.91525"
     inkscape:cy="256"
     inkscape:window-width="1312"
     inkscape:window-height="449"
     inkscape:window-x="0"
     inkscape:window-y="37"
     inkscape:window-maximized="0"
     inkscape:current-layer="Bold" />
  <path
     d="M5.5,21A2.5,2.5,0,0,1,3,18.5V1.5A1.5,1.5,0,0,0,1.5,0h0A1.5,1.5,0,0,0,0,1.5v17A5.5,5.5,0,0,0,5.5,24h17A1.5,1.5,0,0,0,24,22.5h0A1.5,1.5,0,0,0,22.5,21Z"
     id="path1"
     style="fill:#ffffff" />
  <path
     d="M19.5,18A1.5,1.5,0,0,0,21,16.5v-6a1.5,1.5,0,0,0-3,0v6A1.5,1.5,0,0,0,19.5,18Z"
     id="path2"
     style="fill:#f7f7f7;fill-opacity:1" />
  <path
     d="M7.5,18A1.5,1.5,0,0,0,9,16.5v-6a1.5,1.5,0,0,0-3,0v6A1.5,1.5,0,0,0,7.5,18Z"
     id="path3"
     style="fill:#ffffff;fill-opacity:1" />
  <path
     d="M13.5,18A1.5,1.5,0,0,0,15,16.5V5.5a1.5,1.5,0,0,0-3,0v11A1.5,1.5,0,0,0,13.5,18Z"
     id="path4"
     style="fill:#ffffff;fill-opacity:1" />
</svg>
